<svg xmlns="http://www.w3.org/2000/svg" viewBox="0 0 5.86 5.83"><defs><style>.cls-1{opacity:0.75;}</style></defs><title>Asset 2</title><g id="Layer_2" data-name="Layer 2"><g id="Layer_1-2" data-name="Layer 1"><g class="cls-1"><path d="M2.45,1.67a1.63,1.63,0,0,1,.35,0,.55.55,0,0,1,.6.52c0,.39-.28.6-.89.71a8.71,8.71,0,0,0,.94,1.21c.35.38.53.48.82.48a3.08,3.08,0,0,0,.48-.06A4.69,4.69,0,0,1,3.21,3c.52-.15.84-.48.84-.87s-.46-.86-1.13-.86H1.56c.28.13.32.21.32.67v2c0,.47,0,.55-.32.67H2.77c-.28-.12-.32-.21-.32-.67ZM2.9.34a2.58,2.58,0,0,1,0,5.15A2.58,2.58,0,0,1,2.9.34M3,0A2.92,2.92,0,1,0,5.86,2.92,2.92,2.92,0,0,0,3,0"/></g></g></g></svg>